<svg aria-hidden="true" style="position: absolute; width: 0; height: 0; overflow: hidden;" version="1.1" xmlns="http://www.w3.org/2000/svg" xmlns:xlink="http://www.w3.org/1999/xlink">
<defs>
<symbol id="icon-comment" viewBox="0 0 32 32">
<path d="M32 16c0 6.321-7.161 11.429-16 11.429-0.875 0-1.75-0.054-2.589-0.143-2.339 2.071-5.125 3.536-8.214 4.321-0.643 0.179-1.339 0.304-2.036 0.393-0.393 0.036-0.768-0.25-0.857-0.679v-0.018c-0.089-0.446 0.214-0.714 0.482-1.036 1.125-1.268 2.411-2.339 3.25-5.321-3.679-2.089-6.036-5.321-6.036-8.946 0-6.304 7.161-11.429 16-11.429s16 5.107 16 11.429z"></path>
</symbol>
<symbol id="icon-handshake-o" viewBox="0 0 41 32">
<path d="M3.429 20.571c1.5 0 1.5-2.286 0-2.286s-1.5 2.286 0 2.286zM29.732 19.536c-1.411-1.839-2.786-3.714-4.393-5.393l-2.232 2.5c-1.964 2.232-5.482 2.179-7.393-0.107-1.357-1.643-1.357-4 0.036-5.625l3.161-3.679c-1.107-0.571-2.446-0.375-3.643-0.375-1.054 0-2.071 0.429-2.821 1.179l-2.821 2.821h-2.768v9.714c0.786 0 1.5-0.107 2.125 0.5l5.304 5.214c1.089 1.054 2.5 1.982 4.054 1.982 0.804 0 1.661-0.268 2.232-0.839 1.339 0.464 2.893-0.286 3.304-1.661 0.857 0.071 1.643-0.196 2.268-0.786 0.411-0.375 0.946-1.125 0.893-1.714 0.161 0.161 0.554 0.179 0.768 0.179 2.125 0 3.232-2.232 1.929-3.911zM32.571 20.571h1.714v-9.143h-1.661l-2.804-3.214c-0.75-0.857-1.875-1.357-3.018-1.357h-2.982c-1 0-1.964 0.446-2.607 1.196l-3.732 4.339c-0.661 0.786-0.661 1.893-0.018 2.679 1.018 1.214 2.893 1.232 3.946 0.054l3.446-3.893c0.821-0.911 2.321-0.054 1.946 1.107 0.679 0.786 1.411 1.554 2.071 2.339 0.893 1.107 1.75 2.268 2.625 3.393 0.554 0.714 0.964 1.571 1.071 2.5zM37.714 20.571c1.5 0 1.5-2.286 0-2.286s-1.5 2.286 0 2.286zM41.143 10.286v11.429c0 0.625-0.518 1.143-1.143 1.143h-7.75c-0.643 1.554-2.054 2.589-3.696 2.821-0.768 1.125-1.946 1.982-3.268 2.268-0.982 1.25-2.571 2-4.161 1.893-2.946 1.661-6.268 0.214-8.464-1.946l-5.125-5.036h-6.393c-0.625 0-1.143-0.518-1.143-1.143v-12c0-0.625 0.518-1.143 1.143-1.143h7.518c2.071-2.071 3.5-4 6.607-4h2.089c1.161 0 2.286 0.357 3.232 1 0.946-0.643 2.071-1 3.232-1h2.982c3.393 0 4.804 2.214 6.857 4.571h6.339c0.625 0 1.143 0.518 1.143 1.143z"></path>
</symbol>
<symbol id="icon-line-chart" viewBox="0 0 37 32">
<path d="M36.571 27.429v2.286h-36.571v-27.429h2.286v25.143h34.286zM34.286 5.143v7.768c0 0.5-0.607 0.768-0.982 0.393l-2.161-2.161-11.304 11.304c-0.232 0.232-0.589 0.232-0.821 0l-4.161-4.161-7.429 7.429-3.429-3.429 10.446-10.446c0.232-0.232 0.589-0.232 0.821 0l4.161 4.161 8.286-8.286-2.161-2.161c-0.375-0.375-0.107-0.982 0.393-0.982h7.768c0.321 0 0.571 0.25 0.571 0.571z"></path>
</symbol>
<symbol id="icon-hourglass-o" viewBox="0 0 27 32">
<path d="M25.143 2.286c0 6.607-3.161 11.393-6.661 13.714 3.5 2.321 6.661 7.107 6.661 13.714h1.714c0.321 0 0.571 0.25 0.571 0.571v1.143c0 0.321-0.25 0.571-0.571 0.571h-26.286c-0.321 0-0.571-0.25-0.571-0.571v-1.143c0-0.321 0.25-0.571 0.571-0.571h1.714c0-6.607 3.161-11.393 6.661-13.714-3.5-2.321-6.661-7.107-6.661-13.714h-1.714c-0.321 0-0.571-0.25-0.571-0.571v-1.143c0-0.321 0.25-0.571 0.571-0.571h26.286c0.321 0 0.571 0.25 0.571 0.571v1.143c0 0.321-0.25 0.571-0.571 0.571h-1.714zM15.607 14.929c3.607-1.357 7.25-6.125 7.25-12.643h-18.286c0 6.518 3.643 11.286 7.25 12.643 0.446 0.161 0.75 0.589 0.75 1.071s-0.304 0.911-0.75 1.071c-3.607 1.357-7.25 6.125-7.25 12.643h18.286c0-6.518-3.643-11.286-7.25-12.643-0.446-0.161-0.75-0.589-0.75-1.071s0.304-0.911 0.75-1.071z"></path>
</symbol>
</defs>
</svg>
